# xmcd
#
# Track frame offsets:
#	150
#	29345
#	46655
#	61402
#	72592
#	85825
#	99740
#	117150
#	133140
#	149392
#	159175
#	182180
#	203112
#	224172
#	238977
#	253265
#	271735
#	284540
#
# Disc length: 4069 seconds
#
# Revision: 0
# Processed by: cddbd v1.5PL3 Copyright (c) Steve Scherf et al.
# Submitted via: dBpowerAMP V4.0
#
DISCID=1d0fe312
DTITLE=Various Artist - Crowd Around the Mic Volume 4
DYEAR=1900
DGENRE=Alternative Countr
TTITLE0=Two Trains/ Rocket in my Pocket
TTITLE1=Levels
TTITLE2=Rise
TTITLE3=Kawanga!
TTITLE4=Lightning Bug
TTITLE5=Chief's Medley
TTITLE6=Skunk Juice
TTITLE7=Clay and Ottie
TTITLE8=The Blackest Crow
TTITLE9=You Always Get What's Coming
TTITLE10=Stevland
TTITLE11=Magdelena
TTITLE12=Communion
TTITLE13=She's Living in a Dream World
TTITLE14=The Purple Robe
TTITLE15=If by chance we meet again
TTITLE16=Wild Mountain Flowers for Mary
TTITLE17=Tides of Time
EXTD=
EXTT0=
EXTT1=
EXTT2=
EXTT3=
EXTT4=
EXTT5=
EXTT6=
EXTT7=
EXTT8=
EXTT9=
EXTT10=
EXTT11=
EXTT12=
EXTT13=
EXTT14=
EXTT15=
EXTT16=
EXTT17=
PLAYORDER=
